<?xml version="1.0" encoding="UTF-8" standalone="no"?>
<svg
   width="350"
   height="90"
   viewBox="0 0 350 90"
   version="1.1"
   id="svg2"
   sodipodi:docname="reset_hover.svg"
   xmlns:inkscape="http://www.inkscape.org/namespaces/inkscape"
   xmlns:sodipodi="http://sodipodi.sourceforge.net/DTD/sodipodi-0.dtd"
   xmlns="http://www.w3.org/2000/svg"
   xmlns:svg="http://www.w3.org/2000/svg">
  <defs
     id="defs2" />
  <sodipodi:namedview
     id="namedview2"
     pagecolor="#ffffff"
     bordercolor="#666666"
     borderopacity="1.0"
     inkscape:showpageshadow="2"
     inkscape:pageopacity="0.0"
     inkscape:pagecheckerboard="0"
     inkscape:deskcolor="#d1d1d1" />
  <g
     opacity="1.0"
     id="g2">
    <rect
       x="1.5"
       y="1.5"
       width="347"
       height="87"
       rx="18"
       ry="18"
       fill="#2c2521"
       stroke="#e8874a"
       stroke-width="3"
       id="rect1" />
    <g
       transform="translate(58.875,12.0) scale(2.75)"
       id="g1">
      <path
         d="M19.5 12a7.5 7.5 0 1 1 -2.4-5.5"
         fill="none"
         stroke="#e8874a"
         stroke-width="2.3"
         stroke-linecap="round"
         id="path1" />
      <polygon
         points="19.8,3.8 19.8,8.6 15,8.6"
         fill="#e8874a"
         id="polygon1" />
    </g>
    <path
       d="m 162.81934,41.711914 q 2.9541,0 4.22363,-1.098633 1.29394,-1.098633 1.29394,-3.613281 0,-2.490234 -1.29394,-3.564453 -1.26953,-1.074219 -4.22363,-1.074219 h -3.95508 v 9.350586 z m -3.95508,6.494141 V 62 h -9.39942 V 25.549805 h 14.35547 q 7.20215,0 10.54688,2.416992 3.36914,2.416992 3.36914,7.641601 0,3.613282 -1.75781,5.932618 -1.7334,2.319336 -5.24903,3.417968 1.92871,0.439453 3.44238,2.001953 1.53809,1.538086 3.10059,4.6875 L 182.375,62 h -10.00977 l -4.44336,-9.057617 q -1.34277,-2.734375 -2.73437,-3.735352 -1.36719,-1.000976 -3.66211,-1.000976 z m 56.50586,0.04883 v 2.490234 h -20.43457 q 0.31738,3.076172 2.22168,4.614258 1.90429,1.538086 5.32226,1.538086 2.75879,0 5.63965,-0.805664 2.90527,-0.830078 5.95703,-2.490235 v 6.738282 q -3.10058,1.171875 -6.20117,1.757812 -3.10059,0.610352 -6.20117,0.610352 -7.42188,0 -11.54785,-3.759766 -4.10157,-3.78418 -4.10157,-10.595703 0,-6.689453 4.02832,-10.522461 4.05274,-3.833008 11.13282,-3.833008 6.44531,0 10.30273,3.881836 3.88184,3.881836 3.88184,10.375977 z m -8.98438,-2.905274 q 0,-2.490234 -1.46484,-4.003906 -1.44043,-1.538086 -3.78418,-1.538086 -2.53906,0 -4.12598,1.44043 -1.58691,1.416015 -1.97754,4.101562 z m 37.46289,-9.838867 v 6.640625 q -2.80761,-1.171875 -5.41992,-1.757812 -2.6123,-0.585938 -4.93164,-0.585938 -2.49023,0 -3.71094,0.634766 -1.19629,0.610351 -1.19629,1.904297 0,1.049804 0.90332,1.611328 0.92774,0.561523 3.2959,0.830078 l 1.53809,0.219726 q 6.71387,0.854493 9.0332,2.807618 2.31934,1.953125 2.31934,6.127929 0,4.370118 -3.22266,6.567383 -3.22266,2.197266 -9.61914,2.197266 -2.70996,0 -5.61523,-0.439453 -2.88086,-0.415039 -5.93262,-1.269532 v -6.640625 q 2.6123,1.269532 5.34668,1.904297 2.75879,0.634766 5.59082,0.634766 2.56348,0 3.85742,-0.708008 1.29395,-0.708008 1.29395,-2.099609 0,-1.171875 -0.90332,-1.733399 -0.87891,-0.585937 -3.54004,-0.90332 l -1.53809,-0.195313 q -5.83496,-0.732421 -8.17871,-2.70996 -2.34375,-1.97754 -2.34375,-6.00586 0,-4.345703 2.97852,-6.445312 2.97851,-2.09961 9.13085,-2.09961 2.417,0 5.07813,0.366211 2.66113,0.366211 5.78613,1.147461 z m 36.19336,12.744141 v 2.490234 h -20.43457 q 0.31738,3.076172 2.22168,4.614258 1.9043,1.538086 5.32227,1.538086 2.75879,0 5.63965,-0.805664 2.90527,-0.830078 5.95703,-2.490235 v 6.738282 q -3.10059,1.171875 -6.20118,1.757812 -3.10058,0.610352 -6.20117,0.610352 -7.42187,0 -11.54785,-3.759766 -4.10156,-3.78418 -4.10156,-10.595703 0,-6.689453 4.02832,-10.522461 4.05273,-3.833008 11.13281,-3.833008 6.44531,0 10.30274,3.881836 3.88183,3.881836 3.88183,10.375977 z m -8.98437,-2.905274 q 0,-2.490234 -1.46485,-4.003906 -1.44043,-1.538086 -3.78418,-1.538086 -2.53906,0 -4.12597,1.44043 -1.58692,1.416015 -1.97754,4.101562 z M 296.7041,26.892578 v 7.763672 h 9.00879 v 6.25 h -9.00879 v 11.59668 q 0,1.904297 0.75684,2.58789 0.75683,0.65918 3.00293,0.65918 h 4.49218 V 62 h -7.49511 q -5.17578,0 -7.34864,-2.148438 -2.14843,-2.172851 -2.14843,-7.348632 V 40.90625 h -4.34571 v -6.25 h 4.34571 v -7.763672 z"
       id="text1"
       style="font-weight:700;font-size:50px;font-family:Verdana, 'DejaVu Sans', Arial, sans-serif;letter-spacing:0.5;fill:#ffffff"
       aria-label="Reset" />
  </g>
</svg>
